<?xml version="1.0" encoding="UTF-8" standalone="no"?>
<!DOCTYPE svg PUBLIC "-//W3C//DTD SVG 1.1//EN" "http://www.w3.org/Graphics/SVG/1.1/DTD/svg11.dtd">
<svg width="100%" height="100%" viewBox="0 0 84 85" version="1.1" xmlns="http://www.w3.org/2000/svg" xmlns:xlink="http://www.w3.org/1999/xlink" xml:space="preserve" xmlns:serif="http://www.serif.com/" style="fill-rule:evenodd;clip-rule:evenodd;stroke-linejoin:round;stroke-miterlimit:1.41421;">
    <g transform="matrix(1,0,0,1,-43.202,-42.122)">
        <path d="M106.074,100.128C104.827,100.496 103.832,100.634 102.527,100.634C91.836,100.634 76.138,63.275 76.138,50.841C76.138,46.264 77.221,44.737 78.751,43.426C65.667,44.953 49.967,49.755 44.947,55.859C43.862,57.388 43.202,59.785 43.202,62.839C43.202,82.249 63.92,126.294 78.534,126.294C85.297,126.295 96.696,115.181 106.074,100.128" style="fill:rgb(255,135,0);fill-rule:nonzero;"/>
    </g>
    <g transform="matrix(1,0,0,1,-43.202,-42.122)">
        <path d="M99.25,42.122C112.77,42.122 126.299,44.302 126.299,51.934C126.299,67.417 116.48,86.18 111.467,86.18C102.525,86.18 91.402,61.313 91.402,48.879C91.403,43.209 93.583,42.122 99.25,42.122" style="fill:rgb(255,135,0);fill-rule:nonzero;"/>
    </g>
    <g transform="matrix(0.253003,-0.0330646,0.0330646,0.253003,55.7694,56.0724)">
        <g transform="matrix(1,0,0,1,-82,-87)">
            <clipPath id="_clip1">
                <rect x="0" y="0" width="164" height="174"/>
            </clipPath>
            <g clip-path="url(#_clip1)">
                <g>
                    <path d="M82,-0.5C66.408,-0.5 53.509,11 51.329,26L112.671,26C110.49,11 97.592,-0.5 82,-0.5Z" style="fill:rgb(35,31,32);fill-rule:nonzero;"/>
                    <path d="M59,34L39.049,34L26.756,13.421C25.445,11.228 23.123,10 20.741,10C19.519,10 18.282,10.32 17.157,10.993C13.839,12.976 12.756,17.286 14.74,20.604L31.107,48L41.985,48C30.602,57.726 22.614,71.455 20.545,87L5,87C2.239,87 0,89.238 0,92L0,95C0,97.762 2.239,100 5,100L20.223,100C21.359,113.76 27.126,126.244 35.849,136L31.107,136L14.739,163.385C12.755,166.703 13.838,171.001 17.156,172.985C18.281,173.658 19.519,173.977 20.74,173.977C23.122,173.977 25.445,172.761 26.755,170.568L39.049,150L53.81,150C60.931,153.724 68.786,156.106 76.999,156.781L76.999,150L76.999,136L76.999,100L76.999,87L76.999,48L76.999,34L71.126,34L59,34Z" style="fill:rgb(35,31,32);fill-rule:nonzero;"/>
                    <path d="M159,87L143.475,87C141.477,71.455 133.744,57.726 122.438,48L133.328,48L149.709,21.451C151.74,18.161 150.72,13.843 147.43,11.812C144.139,9.782 139.826,10.812 137.797,14.101L125.517,34L95,34L93.041,34L87,34L87,156.781C95.479,156.106 103.457,153.723 110.618,150L125.516,150L137.795,169.891C139.824,173.18 144.137,174.201 147.428,172.17C150.718,170.14 151.739,165.826 149.707,162.537L133.327,136L128.513,136C137.121,126.244 142.691,113.76 143.786,100L159,100C161.762,100 164,97.762 164,95L164,92C164,89.238 161.762,87 159,87Z" style="fill:rgb(35,31,32);fill-rule:nonzero;"/>
                </g>
            </g>
        </g>
    </g>
</svg>
